<svg xmlns="http://www.w3.org/2000/svg" width="64.736" height="56" viewBox="0 0 64.736 56"><g transform="translate(-928.109 -865.69)"><path d="M0,0H24V24H0Z" transform="translate(948 882)" fill="none"/><path d="M61.606,53.22h-55a3.235,3.235,0,0,0,0,6.47h55a3.235,3.235,0,0,0,0-6.47Zm5.079-30.281a4.882,4.882,0,0,0-5.953-3.429L43.554,24.1,22.655,4.628a3.43,3.43,0,0,0-3.3-.809,3.5,3.5,0,0,0-2.1,5.112L28.381,28.212,12.3,32.515,7.223,28.5a3.314,3.314,0,0,0-2.847-.582l-1.068.291a1.59,1.59,0,0,0-.971,2.362L8.42,41.088a3.281,3.281,0,0,0,3.623,1.521l51.18-13.717a4.9,4.9,0,0,0,3.462-5.953Z" transform="translate(926 862)" fill="#1d1d1d"/></g></svg>