<svg xmlns="http://www.w3.org/2000/svg" width="24" height="24" viewBox="0 0 24 24"><g transform="translate(-1086 -50)"><path d="M0,0H24V24H0Z" transform="translate(1086 50)" fill="none"/><path d="M18,19H6a1,1,0,0,1-1-1V6A1,1,0,0,1,6,5h5a1,1,0,0,0,0-2H5A2,2,0,0,0,3,5V19a2.006,2.006,0,0,0,2,2H19a2.006,2.006,0,0,0,2-2V13a1,1,0,0,0-2,0v5A1,1,0,0,1,18,19ZM14,4a1,1,0,0,0,1,1h2.59L8.46,14.13a1,1,0,0,0,1.41,1.41L19,6.41V9a1,1,0,0,0,2,0V4a1,1,0,0,0-1-1H15A1,1,0,0,0,14,4Z" transform="translate(1086 50)" fill="#e2e2e2"/></g></svg>