<svg xmlns="http://www.w3.org/2000/svg" width="54" height="60" viewBox="0 0 54 60"><g transform="translate(-934.548 -719.832)"><path d="M57,45.5a2.974,2.974,0,0,1-1.59,2.64L31.71,61.46a2.977,2.977,0,0,1-3.42,0L4.59,48.14A2.974,2.974,0,0,1,3,45.5v-27a2.974,2.974,0,0,1,1.59-2.64L28.29,2.54a2.977,2.977,0,0,1,3.42,0l23.7,13.32A2.974,2.974,0,0,1,57,18.5v27M30,8.45,9,20.27V43.73L30,55.55,51,43.73V20.27L30,8.45m0,6.24,14.7,8.49L30,31.67,15.3,23.18,30,14.69M45,40.67,33,47.6V36.86l12-6.93V40.67M27,47.6,15,40.67V29.93l12,6.93Z" transform="translate(931.548 717.832)" fill="#1d1d1d"/></g></svg>