<svg xmlns="http://www.w3.org/2000/svg" width="64.539" height="56" viewBox="0 0 64.539 56"><g transform="translate(-982.799 -818.604)"><path d="M34.27,44.951a9.705,9.705,0,0,1-4.84-18.1L60.763,8.712,42.918,39.626a9.7,9.7,0,0,1-8.648,5.324M34.27,3A32.853,32.853,0,0,1,50.308,7.26l-6.777,3.9A25.814,25.814,0,0,0,16.005,53.5h.032a3.214,3.214,0,0,1,0,4.55,3.283,3.283,0,0,1-4.582.032h0A32.265,32.265,0,0,1,34.27,3m32.27,32.27a32.169,32.169,0,0,1-9.455,22.815h0a3.229,3.229,0,0,1-4.55-4.582h0A25.652,25.652,0,0,0,60.085,35.27a26.045,26.045,0,0,0-1.743-9.358l3.9-6.777A33.088,33.088,0,0,1,66.539,35.27Z" transform="translate(980.799 815.604)" fill="#1d1d1d"/></g></svg>